<svg width="25" height="24" viewBox="0 0 25 24" fill="none" xmlns="http://www.w3.org/2000/svg">
<path fill-rule="evenodd" clip-rule="evenodd" d="M3.40009 6.5C3.40009 3.87479 3.42819 3 6.90009 3C10.372 3 10.4001 3.87479 10.4001 6.5C10.4001 9.12521 10.4112 10 6.90009 10C3.38901 10 3.40009 9.12521 3.40009 6.5Z" stroke="#9E9E9E" stroke-width="1.5" stroke-linecap="round" stroke-linejoin="round"/>
<path fill-rule="evenodd" clip-rule="evenodd" d="M14.4001 6.5C14.4001 3.87479 14.4282 3 17.9001 3C21.372 3 21.4001 3.87479 21.4001 6.5C21.4001 9.12521 21.4112 10 17.9001 10C14.389 10 14.4001 9.12521 14.4001 6.5Z" stroke="#9E9E9E" stroke-width="1.5" stroke-linecap="round" stroke-linejoin="round"/>
<path fill-rule="evenodd" clip-rule="evenodd" d="M3.40009 17.5C3.40009 14.8748 3.42819 14 6.90009 14C10.372 14 10.4001 14.8748 10.4001 17.5C10.4001 20.1252 10.4112 21 6.90009 21C3.38901 21 3.40009 20.1252 3.40009 17.5Z" stroke="#9E9E9E" stroke-width="1.5" stroke-linecap="round" stroke-linejoin="round"/>
<path fill-rule="evenodd" clip-rule="evenodd" d="M14.4001 17.5C14.4001 14.8748 14.4282 14 17.9001 14C21.372 14 21.4001 14.8748 21.4001 17.5C21.4001 20.1252 21.4112 21 17.9001 21C14.389 21 14.4001 20.1252 14.4001 17.5Z" stroke="#9E9E9E" stroke-width="1.5" stroke-linecap="round" stroke-linejoin="round"/>
</svg>
