<svg width="74" height="12" viewBox="0 0 74 12" fill="none" xmlns="http://www.w3.org/2000/svg">
<path d="M16.48 9V3.4H18.468C18.756 3.4 19.016 3.45867 19.248 3.576C19.4827 3.69333 19.668 3.86267 19.804 4.084C19.9427 4.30267 20.012 4.56533 20.012 4.872C20.012 5.02133 19.988 5.168 19.94 5.312C19.892 5.456 19.824 5.58267 19.736 5.692C19.648 5.80133 19.5413 5.87867 19.416 5.924C19.5867 5.96667 19.728 6.044 19.84 6.156C19.9547 6.26533 20.0453 6.39333 20.112 6.54C20.1787 6.68667 20.2253 6.83867 20.252 6.996C20.2813 7.15333 20.296 7.30267 20.296 7.444C20.296 7.74267 20.224 8.00933 20.08 8.244C19.936 8.47867 19.7427 8.664 19.5 8.8C19.26 8.93333 18.9947 9 18.704 9H16.48ZM17.312 8.28H18.624C18.7947 8.28 18.9493 8.23733 19.088 8.152C19.2293 8.06667 19.3413 7.94933 19.424 7.8C19.5067 7.648 19.548 7.47733 19.548 7.288C19.548 7.12267 19.5067 6.96667 19.424 6.82C19.3413 6.67067 19.2293 6.55067 19.088 6.46C18.9493 6.36933 18.7947 6.324 18.624 6.324H17.312V8.28ZM17.312 5.616H18.38C18.5987 5.616 18.7867 5.54933 18.944 5.416C19.1013 5.28267 19.18 5.1 19.18 4.868C19.18 4.62 19.1013 4.43467 18.944 4.312C18.7867 4.18667 18.5987 4.124 18.38 4.124H17.312V5.616ZM22.8697 9.104C22.5017 9.104 22.1657 9.00933 21.8617 8.82C21.5604 8.63067 21.319 8.37733 21.1377 8.06C20.959 7.74 20.8697 7.38667 20.8697 7C20.8697 6.70667 20.9217 6.43333 21.0257 6.18C21.1297 5.924 21.2724 5.7 21.4537 5.508C21.6377 5.31333 21.851 5.16133 22.0937 5.052C22.3364 4.94267 22.595 4.888 22.8697 4.888C23.1764 4.888 23.4577 4.952 23.7137 5.08C23.9697 5.20533 24.1884 5.38 24.3697 5.604C24.551 5.82533 24.6844 6.08133 24.7697 6.372C24.855 6.66 24.8804 6.96667 24.8457 7.292H21.7617C21.7964 7.476 21.863 7.64267 21.9617 7.792C22.063 7.93867 22.191 8.05467 22.3457 8.14C22.503 8.22533 22.6777 8.26933 22.8697 8.272C23.0724 8.272 23.2564 8.22133 23.4217 8.12C23.5897 8.01867 23.727 7.87867 23.8337 7.7L24.6777 7.896C24.5177 8.25067 24.2764 8.54133 23.9537 8.768C23.631 8.992 23.2697 9.104 22.8697 9.104ZM21.7337 6.656H24.0057C23.979 6.464 23.911 6.29067 23.8017 6.136C23.695 5.97867 23.5604 5.85467 23.3977 5.764C23.2377 5.67067 23.0617 5.624 22.8697 5.624C22.6804 5.624 22.5044 5.66933 22.3417 5.76C22.1817 5.85067 22.0484 5.97467 21.9417 6.132C21.8377 6.28667 21.7684 6.46133 21.7337 6.656ZM26.5401 11H25.7081V5H26.5401V5.588C26.6735 5.38267 26.8441 5.216 27.0521 5.088C27.2601 4.96 27.5055 4.896 27.7881 4.896C28.0788 4.896 28.3508 4.95067 28.6041 5.06C28.8601 5.16933 29.0841 5.32133 29.2761 5.516C29.4681 5.708 29.6188 5.93067 29.7281 6.184C29.8375 6.43733 29.8921 6.70933 29.8921 7C29.8921 7.29067 29.8375 7.564 29.7281 7.82C29.6188 8.076 29.4681 8.30133 29.2761 8.496C29.0841 8.688 28.8601 8.83867 28.6041 8.948C28.3508 9.05733 28.0788 9.112 27.7881 9.112C27.5055 9.112 27.2601 9.048 27.0521 8.92C26.8441 8.78933 26.6735 8.62267 26.5401 8.42V11ZM27.7801 5.7C27.5481 5.7 27.3441 5.75867 27.1681 5.876C26.9921 5.99333 26.8548 6.15067 26.7561 6.348C26.6575 6.54267 26.6081 6.76 26.6081 7C26.6081 7.24 26.6575 7.45867 26.7561 7.656C26.8548 7.85333 26.9921 8.01067 27.1681 8.128C27.3441 8.24533 27.5481 8.304 27.7801 8.304C28.0095 8.304 28.2201 8.24667 28.4121 8.132C28.6041 8.01467 28.7575 7.85733 28.8721 7.66C28.9868 7.46267 29.0441 7.24267 29.0441 7C29.0441 6.76267 28.9868 6.54533 28.8721 6.348C28.7601 6.15067 28.6081 5.99333 28.4161 5.876C28.2241 5.75867 28.0121 5.7 27.7801 5.7ZM30.5059 7.5V5H31.3379V7.296C31.3379 7.47467 31.3819 7.63733 31.4699 7.784C31.5579 7.93067 31.6753 8.048 31.8219 8.136C31.9686 8.22133 32.1299 8.264 32.3059 8.264C32.4846 8.264 32.6459 8.22133 32.7899 8.136C32.9366 8.048 33.0526 7.93067 33.1379 7.784C33.2259 7.63733 33.2699 7.47467 33.2699 7.296V5H34.1019L34.1059 9H33.2739L33.2699 8.568C33.1339 8.73333 32.9646 8.864 32.7619 8.96C32.5593 9.056 32.3419 9.104 32.1099 9.104C31.8139 9.104 31.5446 9.032 31.3019 8.888C31.0593 8.744 30.8659 8.55067 30.7219 8.308C30.5779 8.06533 30.5059 7.796 30.5059 7.5ZM35.1394 9V3H35.9714V9H35.1394ZM41.9903 5H42.8783L40.6863 11H39.8023L40.5263 9L39.0903 5H39.9983L40.9423 7.86L41.9903 5ZM45.2962 9.104C44.9282 9.104 44.5922 9.00933 44.2882 8.82C43.9869 8.63067 43.7456 8.37733 43.5642 8.06C43.3856 7.74 43.2962 7.38667 43.2962 7C43.2962 6.70667 43.3482 6.43333 43.4522 6.18C43.5562 5.924 43.6989 5.7 43.8802 5.508C44.0642 5.31333 44.2776 5.16133 44.5202 5.052C44.7629 4.94267 45.0216 4.888 45.2962 4.888C45.6029 4.888 45.8842 4.952 46.1402 5.08C46.3962 5.20533 46.6149 5.38 46.7962 5.604C46.9776 5.82533 47.1109 6.08133 47.1962 6.372C47.2816 6.66 47.3069 6.96667 47.2722 7.292H44.1882C44.2229 7.476 44.2896 7.64267 44.3882 7.792C44.4896 7.93867 44.6176 8.05467 44.7722 8.14C44.9296 8.22533 45.1042 8.26933 45.2962 8.272C45.4989 8.272 45.6829 8.22133 45.8482 8.12C46.0162 8.01867 46.1536 7.87867 46.2602 7.7L47.1042 7.896C46.9442 8.25067 46.7029 8.54133 46.3802 8.768C46.0576 8.992 45.6962 9.104 45.2962 9.104ZM44.1602 6.656H46.4322C46.4056 6.464 46.3376 6.29067 46.2282 6.136C46.1216 5.97867 45.9869 5.85467 45.8242 5.764C45.6642 5.67067 45.4882 5.624 45.2962 5.624C45.1069 5.624 44.9309 5.66933 44.7682 5.76C44.6082 5.85067 44.4749 5.97467 44.3682 6.132C44.2642 6.28667 44.1949 6.46133 44.1602 6.656ZM50.2233 5.832H49.3833L49.3793 9H48.5473L48.5513 5.832H47.9153V5H48.5513L48.5473 3.744H49.3793L49.3833 5H50.2233V5.832ZM54.5594 9H53.5994L52.6154 7.304L51.9714 8.072V9H51.1394V3H51.9714V6.78L53.4594 5H54.5474L53.1834 6.628L54.5594 9ZM58.2795 5H59.1115V9H58.2755L58.2435 8.42C58.1262 8.62533 57.9675 8.79067 57.7675 8.916C57.5675 9.04133 57.3315 9.104 57.0595 9.104C56.7662 9.104 56.4902 9.04933 56.2315 8.94C55.9728 8.828 55.7448 8.67333 55.5475 8.476C55.3528 8.27867 55.2008 8.052 55.0915 7.796C54.9822 7.53733 54.9275 7.26 54.9275 6.964C54.9275 6.67867 54.9808 6.41067 55.0875 6.16C55.1942 5.90667 55.3422 5.68533 55.5315 5.496C55.7208 5.30667 55.9395 5.15867 56.1875 5.052C56.4382 4.94267 56.7062 4.888 56.9915 4.888C57.2822 4.888 57.5382 4.95467 57.7595 5.088C57.9835 5.21867 58.1688 5.38667 58.3155 5.592L58.2795 5ZM57.0395 8.3C57.2742 8.3 57.4795 8.24267 57.6555 8.128C57.8315 8.01067 57.9675 7.85333 58.0635 7.656C58.1622 7.45867 58.2115 7.24 58.2115 7C58.2115 6.75733 58.1622 6.53733 58.0635 6.34C57.9648 6.14267 57.8275 5.98667 57.6515 5.872C57.4782 5.75467 57.2742 5.696 57.0395 5.696C56.8075 5.696 56.5955 5.75467 56.4035 5.872C56.2115 5.98933 56.0595 6.14667 55.9475 6.344C55.8355 6.54133 55.7795 6.76 55.7795 7C55.7795 7.24267 55.8368 7.46267 55.9515 7.66C56.0688 7.85467 56.2222 8.01067 56.4115 8.128C56.6035 8.24267 56.8128 8.3 57.0395 8.3ZM63.3657 5.832L61.1417 8.168H63.3657V9H59.9497V8.168L62.1737 5.832H59.9497V5H63.3657V5.832ZM64.3644 5H65.1964V9H64.3644V5ZM64.7884 4.42C64.6604 4.42 64.5537 4.37867 64.4684 4.296C64.383 4.21333 64.3404 4.10933 64.3404 3.984C64.3404 3.86133 64.383 3.75867 64.4684 3.676C64.5537 3.59067 64.659 3.548 64.7844 3.548C64.907 3.548 65.011 3.59067 65.0964 3.676C65.1817 3.75867 65.2244 3.86133 65.2244 3.984C65.2244 4.10933 65.1817 4.21333 65.0964 4.296C65.0137 4.37867 64.911 4.42 64.7884 4.42ZM67.4987 9.076C67.2881 9.06267 67.0827 9.02 66.8827 8.948C66.6827 8.876 66.5067 8.77867 66.3547 8.656C66.2054 8.53067 66.0934 8.384 66.0187 8.216L66.7267 7.912C66.7614 7.984 66.8214 8.05467 66.9067 8.124C66.9947 8.19333 67.0974 8.25067 67.2147 8.296C67.3321 8.33867 67.4547 8.36 67.5827 8.36C67.7081 8.36 67.8241 8.34267 67.9307 8.308C68.0401 8.27067 68.1294 8.21467 68.1987 8.14C68.2681 8.06533 68.3027 7.976 68.3027 7.872C68.3027 7.75467 68.2627 7.664 68.1827 7.6C68.1054 7.53333 68.0081 7.48267 67.8907 7.448C67.7734 7.41333 67.6561 7.38 67.5387 7.348C67.2774 7.28933 67.0374 7.20933 66.8187 7.108C66.6027 7.004 66.4307 6.872 66.3027 6.712C66.1747 6.54933 66.1107 6.35067 66.1107 6.116C66.1107 5.86 66.1801 5.63867 66.3187 5.452C66.4574 5.26267 66.6387 5.11733 66.8627 5.016C67.0894 4.91467 67.3307 4.864 67.5867 4.864C67.9067 4.864 68.2001 4.932 68.4667 5.068C68.7334 5.204 68.9374 5.39067 69.0787 5.628L68.4187 6.02C68.3787 5.94 68.3187 5.868 68.2387 5.804C68.1587 5.74 68.0681 5.68933 67.9667 5.652C67.8654 5.612 67.7601 5.58933 67.6507 5.584C67.5147 5.57867 67.3881 5.59467 67.2707 5.632C67.1561 5.66667 67.0641 5.72267 66.9947 5.8C66.9254 5.87733 66.8907 5.976 66.8907 6.096C66.8907 6.21333 66.9321 6.30133 67.0147 6.36C67.0974 6.416 67.2014 6.46133 67.3267 6.496C67.4547 6.53067 67.5854 6.56933 67.7187 6.612C67.9561 6.68667 68.1787 6.77867 68.3867 6.888C68.5947 6.99467 68.7627 7.12667 68.8907 7.284C69.0187 7.44133 69.0801 7.63333 69.0747 7.86C69.0747 8.11067 68.9987 8.33067 68.8467 8.52C68.6974 8.70933 68.5027 8.85333 68.2627 8.952C68.0227 9.05067 67.7681 9.092 67.4987 9.076ZM73.5597 6.492V9H72.7277V6.696C72.7277 6.51733 72.6837 6.35467 72.5957 6.208C72.5104 6.06133 72.3944 5.94533 72.2477 5.86C72.1037 5.772 71.941 5.728 71.7597 5.728C71.5837 5.728 71.4224 5.772 71.2757 5.86C71.129 5.94533 71.0117 6.06133 70.9237 6.208C70.8357 6.35467 70.7917 6.51733 70.7917 6.696V9H69.9597V3H70.7917V5.424C70.9304 5.25867 71.101 5.128 71.3037 5.032C71.5064 4.936 71.725 4.888 71.9597 4.888C72.2557 4.888 72.525 4.96 72.7677 5.104C73.0104 5.248 73.2024 5.44133 73.3437 5.684C73.4877 5.92667 73.5597 6.196 73.5597 6.492Z" fill="#05AB63"/>
<path d="M1.5 6H6V6.75H1.5V6ZM0.75 4.125H4.5V4.875H0.75V4.125Z" fill="#0FA958"/>
<path d="M11.2196 6.22725L10.0946 3.60225C10.0658 3.53478 10.0177 3.47727 9.95644 3.43687C9.89517 3.39648 9.82339 3.37496 9.75 3.375H8.625V2.625C8.625 2.52554 8.5855 2.43016 8.51517 2.35984C8.44484 2.28951 8.34946 2.25 8.25 2.25H2.25V3H7.875V7.7085C7.70413 7.80772 7.55458 7.93979 7.435 8.09709C7.31542 8.25439 7.22816 8.43381 7.17825 8.625H4.82175C4.73048 8.2715 4.51342 7.96343 4.21125 7.75852C3.90908 7.55362 3.54256 7.46595 3.18038 7.51196C2.8182 7.55796 2.48523 7.73447 2.24388 8.00841C2.00254 8.28235 1.86938 8.63491 1.86938 9C1.86938 9.36509 2.00254 9.71765 2.24388 9.99159C2.48523 10.2655 2.8182 10.442 3.18038 10.488C3.54256 10.534 3.90908 10.4464 4.21125 10.2415C4.51342 10.0366 4.73048 9.7285 4.82175 9.375H7.17825C7.25983 9.69684 7.44639 9.98229 7.70842 10.1862C7.97045 10.3901 8.29299 10.5008 8.625 10.5008C8.95702 10.5008 9.27956 10.3901 9.54159 10.1862C9.80362 9.98229 9.99018 9.69684 10.0718 9.375H10.875C10.9745 9.375 11.0698 9.33549 11.1402 9.26517C11.2105 9.19484 11.25 9.09946 11.25 9V6.375C11.25 6.3242 11.2397 6.27393 11.2196 6.22725ZM3.375 9.75C3.22667 9.75 3.08166 9.70601 2.95833 9.6236C2.83499 9.54119 2.73886 9.42406 2.68209 9.28701C2.62533 9.14997 2.61048 8.99917 2.63941 8.85368C2.66835 8.7082 2.73978 8.57456 2.84467 8.46967C2.94956 8.36478 3.0832 8.29335 3.22869 8.26441C3.37417 8.23547 3.52497 8.25032 3.66202 8.30709C3.79906 8.36386 3.91619 8.45999 3.99861 8.58332C4.08102 8.70666 4.125 8.85166 4.125 9C4.1248 9.19885 4.04572 9.3895 3.90511 9.53011C3.7645 9.67072 3.57385 9.7498 3.375 9.75ZM8.625 4.125H9.5025L10.3065 6H8.625V4.125ZM8.625 9.75C8.47667 9.75 8.33166 9.70601 8.20833 9.6236C8.08499 9.54119 7.98886 9.42406 7.93209 9.28701C7.87533 9.14997 7.86048 8.99917 7.88941 8.85368C7.91835 8.7082 7.98978 8.57456 8.09467 8.46967C8.19956 8.36478 8.3332 8.29335 8.47869 8.26441C8.62417 8.23547 8.77497 8.25032 8.91202 8.30709C9.04906 8.36386 9.16619 8.45999 9.24861 8.58332C9.33102 8.70666 9.375 8.85166 9.375 9C9.37481 9.19885 9.29572 9.3895 9.15511 9.53011C9.0145 9.67072 8.82386 9.7498 8.625 9.75ZM10.5 8.625H10.0718C9.98915 8.30379 9.80229 8.01907 9.54047 7.81547C9.27865 7.61188 8.95667 7.50092 8.625 7.5V6.75H10.5V8.625Z" fill="#0FA958"/>
</svg>
