<svg width="25" height="24" viewBox="0 0 25 24" fill="none" xmlns="http://www.w3.org/2000/svg">
<path d="M9.9572 20.7714V17.7047C9.95719 16.9246 10.5931 16.2908 11.381 16.2856H14.2671C15.0587 16.2856 15.7005 16.9209 15.7005 17.7047V17.7047V20.7809C15.7003 21.4432 16.2342 21.9845 16.903 22H18.8271C20.7451 22 22.3 20.4607 22.3 18.5618V18.5618V9.83784C22.2897 9.09083 21.9355 8.38935 21.338 7.93303L14.7577 2.6853C13.6049 1.77157 11.9662 1.77157 10.8134 2.6853L4.26201 7.94256C3.66225 8.39702 3.30737 9.09967 3.29999 9.84736V18.5618C3.29999 20.4607 4.85486 22 6.7729 22H8.69695C9.38234 22 9.93796 21.4499 9.93796 20.7714V20.7714" stroke="#9E9E9E" stroke-width="1.5" stroke-linecap="round" stroke-linejoin="round"/>
</svg>
